<svg width="88" height="88" viewBox="0 0 88 88" fill="none" xmlns="http://www.w3.org/2000/svg">
<path d="M66.0009 26.253C65.7809 26.2164 65.5243 26.2164 65.3043 26.253C60.2443 26.0697 56.2109 21.9263 56.2109 16.793C56.2109 11.5497 60.4276 7.33301 65.6709 7.33301C70.9143 7.33301 75.1309 11.5863 75.1309 16.793C75.0943 21.9263 71.0609 26.0697 66.0009 26.253Z" stroke="#17191C" stroke-width="3" stroke-linecap="round" stroke-linejoin="round"/>
<path d="M62.2233 52.946C67.2466 53.7893 72.7833 52.9093 76.67 50.306C81.84 46.8593 81.84 41.2126 76.67 37.766C72.7466 35.1626 67.1366 34.2826 62.1133 35.1626" stroke="#17191C" stroke-width="3" stroke-linecap="round" stroke-linejoin="round"/>
<path d="M21.8917 26.253C22.1117 26.2164 22.3684 26.2164 22.5884 26.253C27.6484 26.0697 31.6817 21.9263 31.6817 16.793C31.6817 11.5497 27.4651 7.33301 22.2217 7.33301C16.9784 7.33301 12.7617 11.5863 12.7617 16.793C12.7984 21.9263 16.8317 26.0697 21.8917 26.253Z" stroke="#17191C" stroke-width="3" stroke-linecap="round" stroke-linejoin="round"/>
<path d="M25.6679 52.946C20.6446 53.7893 15.1079 52.9093 11.2212 50.306C6.05125 46.8593 6.05125 41.2126 11.2212 37.766C15.1446 35.1626 20.7546 34.2826 25.7779 35.1626" stroke="#17191C" stroke-width="3" stroke-linecap="round" stroke-linejoin="round"/>
<path d="M44.0009 53.6436C43.7809 53.607 43.5243 53.607 43.3043 53.6436C38.2443 53.4603 34.2109 49.317 34.2109 44.1836C34.2109 38.9403 38.4276 34.7236 43.6709 34.7236C48.9143 34.7236 53.1309 38.977 53.1309 44.1836C53.0943 49.317 49.0609 53.497 44.0009 53.6436Z" stroke="#17191C" stroke-width="3" stroke-linecap="round" stroke-linejoin="round"/>
<path d="M33.3306 65.1933C28.1606 68.64 28.1606 74.2866 33.3306 77.7333C39.1973 81.6566 48.804 81.6566 54.6706 77.7333C59.8406 74.2866 59.8406 68.64 54.6706 65.1933C48.8406 61.3067 39.1973 61.3067 33.3306 65.1933Z" stroke="#17191C" stroke-width="3" stroke-linecap="round" stroke-linejoin="round"/>
</svg>
