<svg width="42" height="15" viewBox="0 0 42 15" fill="none" xmlns="http://www.w3.org/2000/svg">
<path d="M1 6.36377C0.447715 6.36377 0 6.81148 0 7.36377C0 7.91605 0.447715 8.36377 1 8.36377V7.36377V6.36377ZM41.7071 8.07088C42.0976 7.68035 42.0976 7.04719 41.7071 6.65666L35.3431 0.292702C34.9526 -0.0978227 34.3195 -0.0978227 33.9289 0.292702C33.5384 0.683226 33.5384 1.31639 33.9289 1.70692L39.5858 7.36377L33.9289 13.0206C33.5384 13.4111 33.5384 14.0443 33.9289 14.4348C34.3195 14.8254 34.9526 14.8254 35.3431 14.4348L41.7071 8.07088ZM1 7.36377V8.36377H41V7.36377V6.36377H1V7.36377Z" fill="#236ED7"/>
</svg>
