<svg width="60" height="67" viewBox="0 0 60 67" fill="none" xmlns="http://www.w3.org/2000/svg">
<path d="M36.44 31.3845C37.6878 26.1372 33.1124 21.5616 27.865 22.8094C25.4014 23.4173 23.3856 25.4332 22.7777 27.8969C21.5299 33.1442 26.1053 37.7196 31.3526 36.4718C33.8483 35.8638 35.8641 33.8482 36.44 31.3845Z" stroke="#292D32" stroke-width="3" stroke-linecap="round" stroke-linejoin="round"/>
<path d="M48.854 50.1019C54.3253 44.9825 57.7489 37.7194 57.7489 29.6244C57.7489 14.0743 45.1425 1.5 29.6244 1.5C14.1064 1.5 1.5 14.1063 1.5 29.6244C1.5 37.7514 4.95556 45.0784 10.4909 50.1978" stroke="#292D32" stroke-width="3" stroke-linecap="round" stroke-linejoin="round"/>
<path d="M16.826 41.6553C13.8824 38.5197 12.0586 34.2962 12.0586 29.6248C12.0586 19.9301 19.9296 12.0591 29.6244 12.0591C39.3192 12.0591 47.1902 19.9301 47.1902 29.6248C47.1902 34.2962 45.3664 38.4877 42.4228 41.6553" stroke="#292D32" stroke-width="3" stroke-linecap="round" stroke-linejoin="round"/>
<path d="M24.1842 48.4062L19.5767 54.1336C15.9292 58.709 19.1608 65.4601 25.016 65.4601H34.1989C40.0541 65.4601 43.3178 58.677 39.6382 54.1336L35.0308 48.4062C32.2791 44.9186 26.9678 44.9186 24.1842 48.4062Z" stroke="#292D32" stroke-width="3" stroke-linecap="round" stroke-linejoin="round"/>
</svg>
