<svg width="82" height="85" viewBox="0 0 82 85" fill="none" xmlns="http://www.w3.org/2000/svg">
<path d="M33.9844 11.4351L34.0638 52.4271L41.8491 57.0348L41.7697 16.0427L33.9844 11.4351Z" fill="#FFB700"/>
<path d="M41.7812 16.0427L41.8607 57.0348L49.8049 52.4271L49.646 11.4351L41.7812 16.0427Z" fill="#FCAA2D"/>
<path d="M33.9844 11.4353L41.7697 16.0429L49.6344 11.4353L41.8491 6.82764L33.9844 11.4353Z" fill="#FFDE38"/>
<path d="M22.8125 27.248L22.8919 59.1043L30.7567 63.7119L30.6773 31.8557L22.8125 27.248Z" fill="#B5B5CA"/>
<path d="M30.6758 31.8557L30.7552 63.7119L38.62 59.1043L38.5405 27.248L30.6758 31.8557Z" fill="#E0DDE1"/>
<path d="M22.8125 27.2476L30.6773 31.8553L38.542 27.2476L30.6773 22.5605L22.8125 27.2476Z" fill="#F9F7FC"/>
<path d="M11.7578 44.1675L11.8373 65.6168L19.702 70.2245L19.5431 48.7751L11.7578 44.1675Z" fill="#D22C2B"/>
<path d="M19.5391 48.7751L19.6979 70.2245L27.5627 65.6168L27.4038 44.1675L19.5391 48.7751Z" fill="#F65150"/>
<path d="M11.7578 44.1653L19.5431 48.7729L27.4079 44.1653L19.6226 39.5576L11.7578 44.1653Z" fill="#FF8070"/>
<path d="M0 59.3438L0.079442 72.2928L7.9442 76.9004L7.86476 63.9514L0 59.3438Z" fill="#11499C"/>
<path d="M7.86719 63.9514L7.94663 76.9004L15.8114 72.2928L15.7319 59.3438L7.86719 63.9514Z" fill="#3857CC"/>
<path d="M0 59.3415L7.86476 63.9492L15.7295 59.3415L7.86476 54.7339L0 59.3415Z" fill="#3574E0"/>
<path d="M79.9251 66.0913L78.9718 65.5352L76.668 60.8481L77.6213 61.3248L79.9251 66.0913Z" fill="#E93C3C"/>
<path d="M74.2892 50.7578L73.3359 50.2017L80.5652 54.0943L81.5185 54.6504L74.2892 50.7578Z" fill="#E93C3C"/>
<path d="M73.09 60.7674L72.1367 60.2114L73.3283 50.2017L74.2817 50.7578L73.09 60.7674Z" fill="#E93C3C"/>
<path d="M74.2854 50.7578L81.5146 54.6505V65.1368L79.9258 66.0901L77.6219 61.3236L73.0938 60.7675L74.2854 50.7578Z" fill="#D22C2B"/>
<path d="M43.8555 66.0913L44.8088 65.5352L47.192 60.8481L46.2387 61.3248L43.8555 66.0913Z" fill="#E93C3C"/>
<path d="M49.5847 50.7578L50.538 50.2017L43.3088 54.0943L42.3555 54.6504L49.5847 50.7578Z" fill="#E93C3C"/>
<path d="M50.7658 60.7674L51.7192 60.2114L50.5275 50.2017L49.5742 50.7578L50.7658 60.7674Z" fill="#E93C3C"/>
<path d="M49.5743 50.7578L42.3451 54.6505L42.2656 65.1368L43.8545 66.0901L46.2377 61.3236L50.7659 60.7675L49.5743 50.7578Z" fill="#D22C2B"/>
<path d="M69.5148 60.375L71.0242 66.1743C71.0242 67.5248 70.1504 68.8753 68.4027 69.908C64.8278 71.9735 59.1079 71.9735 55.5331 69.908C53.7059 68.8753 52.832 67.5248 52.832 66.1743L54.3414 60.4544C54.3414 61.5666 55.0564 62.7583 56.5658 63.5527C59.5846 65.3004 64.3511 65.3004 67.2905 63.5527C68.7999 62.5994 69.5148 61.4872 69.5148 60.375Z" fill="#15151A"/>
<path d="M67.2935 57.2761C70.3122 59.0238 70.3122 61.8043 67.2935 63.4726C64.3541 65.2203 59.5081 65.2203 56.5688 63.4726C53.55 61.7249 53.55 58.9444 56.5688 57.2761C59.5081 55.5284 64.2747 55.5284 67.2935 57.2761Z" fill="#1E1A6F"/>
<path d="M61.8947 0C53.9505 4.68708 44.3381 21.6082 44.8942 34.5573C45.2914 43.2959 48.1513 53.4645 52.5206 61.1703C52.9972 62.0442 53.7917 62.8386 54.9833 63.5536C58.7965 65.778 64.993 65.778 68.8062 63.5536C70.0773 62.8386 70.8717 61.9648 71.3483 61.0115C75.7176 53.3056 78.4981 43.2959 78.8953 34.5573C79.4514 21.6082 69.8389 4.68708 61.8947 0Z" fill="#E7E6F1"/>
<path d="M49.5057 30.2656L48.0757 31.06C47.4402 31.4573 47.043 32.2517 47.043 33.3639C47.043 35.6677 48.6318 38.4482 50.6179 39.6398L52.0478 38.8454C50.0618 37.6537 48.4729 34.8733 48.4729 32.5694C48.4729 31.4573 48.8701 30.6628 49.5057 30.2656Z" fill="#CED4F1"/>
<path d="M53.2414 39.8794L54.6713 39.085C54.0358 39.4822 53.0825 39.4028 52.1292 38.8467L50.6992 39.6411C51.6525 40.1972 52.6058 40.2766 53.2414 39.8794Z" fill="#CED4F1"/>
<path d="M48.6253 28.6769L47.1953 29.4713C48.0692 28.9152 49.3402 28.9947 50.6908 29.7891L52.1207 28.9947C50.7702 28.2003 49.4991 28.1208 48.6253 28.6769Z" fill="#CED4F1"/>
<mask id="mask0_817_11004" style="mask-type:luminance" maskUnits="userSpaceOnUse" x="47" y="28" width="6" height="2">
<path d="M48.6214 28.6764L47.1914 29.4708C48.0653 28.9147 49.3363 28.9942 50.6869 29.7886L52.1168 28.9942C50.7663 28.1998 49.4952 28.1203 48.6214 28.6764Z" fill="white"/>
</mask>
<g mask="url(#mask0_817_11004)">
<path d="M50.6869 29.7886L52.1168 28.9942C50.7663 28.1998 49.4952 28.1203 48.6214 28.6764L47.1914 29.4708C48.0653 28.9942 49.3363 29.0736 50.6869 29.7886Z" fill="#CED4F1"/>
</g>
<path d="M54.1947 41.4656L55.6246 40.6711C56.4985 40.1945 57.0546 39.0823 57.0546 37.4935C57.0546 34.3952 54.8302 30.582 52.1292 28.9932L50.6992 29.7876C53.4002 31.3764 55.6246 35.1896 55.6246 38.2879C55.6246 39.8767 55.0685 40.9889 54.1947 41.4656Z" fill="#CED4F1"/>
<mask id="mask1_817_11004" style="mask-type:luminance" maskUnits="userSpaceOnUse" x="50" y="28" width="8" height="14">
<path d="M54.1908 41.4636L55.6207 40.6692C56.4946 40.1925 57.0507 39.0803 57.0507 37.4915C57.0507 34.3933 54.8263 30.5801 52.1253 28.9912L50.6953 29.7856C53.3963 31.3745 55.6207 35.1877 55.6207 38.2859C55.6207 39.8748 55.0646 40.987 54.1908 41.4636Z" fill="white"/>
</mask>
<g mask="url(#mask1_817_11004)">
<path d="M54.1875 41.4631L55.6175 40.6687C56.0941 40.4304 56.4119 40.0331 56.6502 39.4771L55.2202 40.2715C54.9819 40.8276 54.5847 41.2248 54.1875 41.4631Z" fill="#CED4F1"/>
<path d="M55.2231 40.353L56.653 39.5585C56.8913 39.0025 57.0502 38.3669 57.0502 37.5725C57.0502 35.4276 56.0175 32.9649 54.5081 31.1377L53.0781 31.9321C54.5875 33.7593 55.6203 36.222 55.6203 38.3669C55.6203 39.1613 55.4614 39.7969 55.2231 40.353Z" fill="#CED4F1"/>
<path d="M53.0786 31.8511L54.5085 31.0567C53.7935 30.1828 52.9991 29.5473 52.1253 28.9912L50.6953 29.7856C51.5692 30.3417 52.3636 31.0567 53.0786 31.8511Z" fill="#CED4F1"/>
</g>
<path d="M51.3979 39.2431C49.4119 38.0515 47.7436 35.271 47.823 32.9672C47.823 30.6634 49.4913 29.7101 51.4774 30.9017C53.4634 32.0934 55.1317 34.8738 55.0523 37.1776C54.9728 39.4815 53.384 40.4348 51.3979 39.2431Z" fill="#2E2E37"/>
<path d="M55.6203 38.3704C55.6203 41.4686 53.396 42.7397 50.6949 41.1509C47.9939 39.562 45.7695 35.7488 45.7695 32.6506C45.7695 29.5523 47.9939 28.2812 50.6949 29.8701C53.396 31.3795 55.6203 35.1927 55.6203 38.3704ZM50.6949 39.6415C52.681 40.8331 54.3493 39.8798 54.3493 37.576C54.3493 35.2721 52.7604 32.4917 50.7744 31.3C48.7883 30.1084 47.12 31.0617 47.12 33.3655C47.0406 35.6694 48.7089 38.5293 50.6949 39.6415Z" fill="white"/>
<path d="M45.6056 75.2296L44.6523 74.7529V64.2666L45.6056 64.8227V75.2296Z" fill="#D22C2B"/>
<path d="M45.6056 64.8204L44.6523 64.2643L51.8021 52.0303L52.7554 52.5864L45.6056 64.8204Z" fill="#F65150"/>
<path d="M52.7592 52.5884L54.0302 61.1681L49.502 66.9674L47.1982 74.3555L45.6094 75.2293V64.8224L52.7592 52.5884Z" fill="#E93C3C"/>
<path d="M78.1836 75.2296L79.1369 74.7529V64.2666L78.1836 64.8227V75.2296Z" fill="#D22C2B"/>
<path d="M78.181 64.8204L79.1343 64.2643L71.9846 52.0303L71.0312 52.5864L78.181 64.8204Z" fill="#F65150"/>
<path d="M71.0237 52.5884L69.832 61.1681L74.2808 66.9674L76.5846 74.3555L78.1734 75.2293V64.8224L71.0237 52.5884Z" fill="#E93C3C"/>
<path d="M74.2664 15.6535C74.028 15.8124 73.8692 15.8918 73.6308 16.0507C67.196 19.7845 56.7097 19.7845 50.1954 16.0507C49.9571 15.8918 49.7188 15.7329 49.4805 15.6535C52.8965 8.58315 57.5836 2.54556 61.8734 0.00341797C66.1633 2.54556 70.9298 8.58315 74.2664 15.6535Z" fill="#E93C3C"/>
<path d="M38.3688 78.0102C38.3688 80.0756 36.78 81.6645 35.0323 82.6972C30.5835 85.2394 23.4338 85.2394 18.985 82.6972C17.6345 81.9028 16.7606 81.029 16.2045 80.0756C15.9662 79.599 15.8073 79.1223 15.7279 78.6457C15.6484 78.2485 15.6484 75.0708 15.6484 75.1502C15.6484 76.8185 16.7606 78.4868 18.9056 79.7579C23.3543 82.3 30.5041 82.3 34.9528 79.7579C37.1772 78.4868 38.2894 75.0708 38.2894 75.0708C38.2894 75.0708 38.3688 78.0896 38.3688 78.0102Z" fill="#FFCC00"/>
<path d="M19.0653 70.3822C14.6166 72.9243 14.6166 77.1348 18.9859 79.6769C23.4346 82.2191 30.5844 82.2191 35.0332 79.6769C39.4819 77.1348 39.4819 72.9243 35.1126 70.3822C30.6638 67.84 23.5141 67.84 19.0653 70.3822Z" fill="#FFE042"/>
<path d="M36.5469 75.5493C36.3085 76.8204 35.4347 78.012 33.7664 78.9653C30.0326 81.1102 23.995 81.1102 20.3407 78.9653C18.7519 78.012 17.7986 76.8204 17.6397 75.6287C17.4013 74.0399 18.2752 72.3716 20.4201 71.18C24.1539 69.0351 30.1915 69.0351 33.9253 71.18C35.8319 72.3716 36.7852 73.9605 36.5469 75.5493Z" fill="#FCAA2D"/>
<path d="M36.5517 75.5468C36.3134 76.8179 35.4395 78.0095 33.7713 78.9628C30.0375 81.1078 23.9999 81.1078 20.3456 78.9628C18.7567 78.0095 17.8034 76.8179 17.6445 75.6263C17.8829 74.3552 18.7567 73.1636 20.425 72.2103C24.1588 70.0653 30.1964 70.0653 33.9301 72.2103C35.4395 73.1636 36.3134 74.3552 36.5517 75.5468Z" fill="#FCAA2D"/>
<path d="M33.0445 72.291V73.0854L31.7734 73.8004V73.006L33.0445 72.291Z" fill="#FCAA2D"/>
<path d="M33.2152 74.356V75.0709L31.3086 75.7065V74.9915L33.2152 74.356Z" fill="#FCAA2D"/>
<path d="M27.5625 74.434V73.6396C27.5625 73.5601 27.5625 73.5601 27.5625 73.4807C27.5625 73.4013 27.7214 73.3218 27.8008 73.2424C28.0392 73.0835 28.2775 73.0835 28.5952 73.0835C28.913 73.0835 29.2308 73.2424 29.628 73.4807C30.0252 73.719 30.343 73.9574 30.6607 74.1957C30.8991 74.434 31.1374 74.6723 31.2963 74.9107V75.7051C31.1374 75.4668 30.8991 75.2284 30.6607 74.9901C30.4224 74.7518 30.0252 74.5135 29.628 74.2751C29.2308 74.0368 28.913 73.9574 28.5952 73.8779C28.2775 73.8779 28.0392 73.8779 27.8008 74.0368C27.6419 74.1162 27.5625 74.1957 27.5625 74.2751C27.5625 74.3546 27.5625 74.434 27.5625 74.434Z" fill="#FCAA2D"/>
<mask id="mask2_817_11004" style="mask-type:luminance" maskUnits="userSpaceOnUse" x="27" y="73" width="5" height="3">
<path d="M27.5586 74.4325V73.6381C27.5586 73.5587 27.5586 73.5587 27.5586 73.4792C27.5586 73.3998 27.7175 73.3204 27.7969 73.2409C28.0352 73.082 28.2736 73.082 28.5913 73.082C28.9091 73.082 29.2269 73.2409 29.6241 73.4792C30.0213 73.7176 30.3391 73.9559 30.6568 74.1942C30.8952 74.4325 31.1335 74.6709 31.2924 74.9092V75.7036C31.1335 75.4653 30.8952 75.227 30.6568 74.9886C30.4185 74.7503 30.0213 74.512 29.6241 74.2737C29.2269 74.0353 28.9091 73.9559 28.5913 73.8765C28.2736 73.8765 28.0352 73.8764 27.7969 74.0353C27.638 74.1148 27.5586 74.1942 27.5586 74.2737C27.5586 74.3531 27.5586 74.4325 27.5586 74.4325Z" fill="white"/>
</mask>
<g mask="url(#mask2_817_11004)">
<path d="M31.2885 74.9922V75.7866C31.1296 75.5483 30.8912 75.31 30.6529 75.0716C30.4146 74.8333 30.0174 74.595 29.6202 74.3567C29.223 74.1183 28.9052 74.0389 28.5874 73.9595C28.2697 73.9595 28.0313 73.9595 27.793 74.1183C27.6341 74.1978 27.5547 74.2772 27.5547 74.3567C27.5547 74.4361 27.5547 74.4361 27.5547 74.5156V73.7211C27.5547 73.6417 27.5547 73.6417 27.5547 73.5622C27.5547 73.4828 27.7136 73.4034 27.793 73.3239C28.0313 73.165 28.2697 73.165 28.5874 73.165C28.9052 73.165 29.223 73.3239 29.6202 73.5622C30.0174 73.8006 30.3352 74.0389 30.6529 74.2772C30.9707 74.5156 31.1296 74.7539 31.2885 74.9922Z" fill="#FCAA2D"/>
</g>
<path d="M26.5367 76.1844V76.9788C26.5367 76.8994 26.5367 76.82 26.4573 76.7405C26.3779 76.5816 26.2984 76.4228 26.219 76.2639C26.0601 76.105 25.9012 75.8667 25.7423 75.7078C25.5834 75.4695 25.4246 75.3106 25.2657 75.0722C25.1068 74.8339 25.0273 74.675 25.0273 74.4367C25.0273 74.3573 25.0273 74.3573 25.0273 74.2778V73.4834C25.0273 73.5628 25.0273 73.5628 25.0273 73.6423C25.0273 73.8806 25.1862 74.1189 25.2657 74.2778C25.4246 74.5161 25.5834 74.675 25.7423 74.9134C25.9012 75.1517 26.0601 75.3106 26.219 75.4694C26.3779 75.6283 26.4573 75.7872 26.4573 75.9461C26.5367 76.0255 26.5367 76.105 26.5367 76.1844Z" fill="#FCAA2D"/>
<mask id="mask3_817_11004" style="mask-type:luminance" maskUnits="userSpaceOnUse" x="25" y="73" width="2" height="4">
<path d="M26.5406 76.1864V76.9808C26.5406 76.9014 26.5406 76.8219 26.4612 76.7425C26.3818 76.5836 26.3023 76.4247 26.2229 76.2658C26.064 76.1069 25.9051 75.8686 25.7462 75.7097C25.5873 75.4714 25.4285 75.3125 25.2696 75.0742C25.1107 74.8359 25.0312 74.677 25.0312 74.4387C25.0312 74.3592 25.0312 74.3592 25.0312 74.2798V73.4854C25.0312 73.5648 25.0312 73.5648 25.0312 73.6442C25.0312 73.8826 25.1901 74.1209 25.2696 74.2798C25.4285 74.5181 25.5873 74.677 25.7462 74.9153C25.9051 75.1536 26.064 75.3125 26.2229 75.4714C26.3818 75.6303 26.4612 75.7892 26.4612 75.9481C26.5406 76.0275 26.5406 76.1069 26.5406 76.1864Z" fill="white"/>
</mask>
<g mask="url(#mask3_817_11004)">
<path d="M26.5406 76.1874V76.9818C26.5406 76.9023 26.5406 76.8229 26.4612 76.7434C26.3818 76.5846 26.3023 76.4257 26.2229 76.2668C26.064 76.1079 25.9051 75.8696 25.7462 75.7107C25.5873 75.4724 25.4285 75.3135 25.2696 75.0752C25.1107 74.8368 25.0312 74.678 25.0312 74.4396C25.0312 74.3602 25.0312 74.3602 25.0312 74.2807V73.4863C25.0312 73.5658 25.0312 73.5658 25.0312 73.6452C25.0312 73.8835 25.1901 74.1219 25.2696 74.2807C25.4285 74.5191 25.5873 74.678 25.7462 74.9163C25.9051 75.1546 26.064 75.3135 26.2229 75.4724C26.3818 75.6313 26.4612 75.7901 26.4612 75.949C26.5406 76.0285 26.5406 76.1079 26.5406 76.1874Z" fill="#FCAA2D"/>
</g>
<path d="M22.1683 76.8201V77.6146C21.6122 77.2173 21.215 76.8996 20.9767 76.5818C20.7383 76.264 20.5794 76.0257 20.5 75.9463V75.1519C20.5794 75.3107 20.7383 75.5491 20.9767 75.7874C21.215 76.1052 21.6122 76.5024 22.1683 76.8201Z" fill="#FCAA2D"/>
<mask id="mask4_817_11004" style="mask-type:luminance" maskUnits="userSpaceOnUse" x="20" y="75" width="3" height="3">
<path d="M22.1722 76.8206V77.615C21.6161 77.2178 21.2189 76.9001 20.9806 76.5823C20.7422 76.2645 20.5833 76.0262 20.5039 75.9468V75.1523C20.5833 75.3112 20.7422 75.5496 20.9806 75.7879C21.2189 76.1057 21.6161 76.5029 22.1722 76.8206Z" fill="white"/>
</mask>
<g mask="url(#mask4_817_11004)">
<path d="M22.1761 76.8206V77.615C21.62 77.2178 21.2228 76.9001 20.9845 76.5823C20.7461 76.2645 20.5873 76.0262 20.5078 75.9468V75.1523C20.5873 75.3112 20.7461 75.5496 20.9845 75.7879C21.2228 76.1057 21.62 76.5029 22.1761 76.8206Z" fill="#FCAA2D"/>
</g>
<path d="M29.0843 76.4229V77.2173C29.0843 77.4556 29.0049 77.6145 28.9254 77.8528C28.7666 78.0911 28.5282 78.3295 28.2105 78.4883C27.9721 78.6472 27.6544 78.7267 27.3366 78.8856C27.0188 78.965 26.7011 79.0444 26.3039 79.0444C25.9067 79.0444 25.5094 79.0444 25.1122 78.965C24.715 78.8856 24.2384 78.7267 23.7617 78.5678V77.7734C24.2384 77.9323 24.6356 78.0911 25.1122 78.1706C25.5094 78.25 25.9067 78.25 26.3039 78.25C26.7011 78.25 27.0188 78.1706 27.3366 78.0911C27.6544 78.0117 27.8927 77.8528 28.2105 77.6939C28.6077 77.4556 28.846 77.2967 28.9254 77.0584C29.0049 76.8201 29.0843 76.5817 29.0843 76.4229Z" fill="#FCAA2D"/>
<mask id="mask5_817_11004" style="mask-type:luminance" maskUnits="userSpaceOnUse" x="23" y="76" width="7" height="4">
<path d="M29.0843 76.4229V77.2173C29.0843 77.4556 29.0049 77.6145 28.9254 77.8528C28.7666 78.0911 28.5282 78.3295 28.2105 78.4883C27.9721 78.6472 27.6544 78.7267 27.3366 78.8856C27.0188 78.965 26.7011 79.0444 26.3039 79.0444C25.9067 79.0444 25.5094 79.0444 25.1122 78.965C24.715 78.8856 24.2384 78.7267 23.7617 78.5678V77.7734C24.2384 77.9323 24.6356 78.0911 25.1122 78.1706C25.5094 78.25 25.9067 78.25 26.3039 78.25C26.7011 78.25 27.0188 78.1706 27.3366 78.0911C27.6544 78.0117 27.8927 77.8528 28.2105 77.6939C28.6077 77.4556 28.846 77.2967 28.9254 77.0584C29.0049 76.8201 29.0843 76.5817 29.0843 76.4229Z" fill="white"/>
</mask>
<g mask="url(#mask5_817_11004)">
<path d="M29.0843 76.4229V77.2173C29.0843 77.4556 29.0049 77.6145 28.9254 77.8528C28.7666 78.0911 28.5282 78.3295 28.2105 78.4883C27.9721 78.6472 27.6544 78.7267 27.3366 78.8856C27.0188 78.965 26.7011 79.0444 26.3039 79.0444C25.9067 79.0444 25.5094 79.0444 25.1122 78.965C24.715 78.8856 24.2384 78.7267 23.7617 78.5678V77.7734C24.2384 77.9323 24.6356 78.0911 25.1122 78.1706C25.5094 78.25 25.9067 78.25 26.3039 78.25C26.7011 78.25 27.0188 78.1706 27.3366 78.0911C27.6544 78.0117 27.8927 77.8528 28.2105 77.6939C28.6077 77.4556 28.846 77.2967 28.9254 77.0584C29.0049 76.8201 29.0843 76.5817 29.0843 76.4229Z" fill="#FCAA2D"/>
</g>
<path d="M23.7633 77.6899V78.4844L22.2539 79.3582V78.5638L23.7633 77.6899Z" fill="#FCAA2D"/>
<path d="M33.0492 72.2918L31.7782 73.0068C32.1754 73.2451 32.4932 73.5629 32.7315 73.7218C32.9698 73.9601 33.1287 74.119 33.2081 74.2779L31.381 74.9134C31.2221 74.6751 30.9838 74.4368 30.7454 74.1984C30.5071 73.9601 30.1099 73.7218 29.7127 73.4835C29.3155 73.2451 28.9977 73.1657 28.6799 73.0862C28.3622 73.0862 28.1238 73.0862 27.8855 73.2451C27.7266 73.3246 27.6472 73.404 27.6472 73.4835C27.5677 73.5629 27.5677 73.6423 27.6472 73.8012C27.7266 73.8807 27.7266 74.0396 27.8855 74.1984C27.965 74.3573 28.1238 74.5162 28.2827 74.6751C28.5211 74.9929 28.6799 75.2312 28.8388 75.4695C28.9977 75.7078 29.0771 76.0256 29.0771 76.2639C29.0771 76.5023 29.0771 76.7406 28.9183 76.9789C28.7594 77.2172 28.5211 77.4556 28.2033 77.6144C27.965 77.7733 27.6472 77.8528 27.3294 78.0117C27.0117 78.0911 26.6939 78.1705 26.2967 78.1705C25.8995 78.1705 25.5023 78.1705 25.105 78.0911C24.7078 78.0117 24.2312 77.8528 23.7545 77.6939L22.2451 78.5677L20.6563 77.6939L22.0862 76.82C21.5302 76.4228 21.1329 76.105 20.8946 75.7873C20.6563 75.4695 20.4974 75.2312 20.418 75.1517L22.3246 74.6751C22.4835 74.9134 22.7218 75.1517 22.9601 75.4695C23.2779 75.7873 23.5956 76.0256 24.0723 76.2639C24.549 76.5817 24.9462 76.7406 25.2639 76.7406C25.5817 76.7406 25.8995 76.7406 26.1378 76.5817C26.2967 76.5023 26.3761 76.4228 26.4556 76.2639C26.4556 76.1845 26.4556 76.0256 26.4556 75.8667C26.3761 75.7078 26.2967 75.549 26.2172 75.3901C26.0583 75.2312 25.8995 74.9929 25.7406 74.834C25.5817 74.5956 25.4228 74.4368 25.2639 74.1984C25.105 73.9601 25.0256 73.8012 25.0256 73.5629C25.0256 73.3246 25.0256 73.0863 25.1845 72.9274C25.3434 72.689 25.5023 72.5302 25.8995 72.2918C26.1378 72.1329 26.4556 71.9741 26.7733 71.8946C27.0911 71.8152 27.4089 71.7357 27.8061 71.7357C28.2033 71.7357 28.5211 71.7357 28.9977 71.8152C29.3949 71.8946 29.7921 71.9741 30.2688 72.2124L31.6193 71.418L33.0492 72.2918Z" fill="#FFE042"/>
<path d="M22.2373 78.5638V79.3582L20.6484 78.4844V77.6899L22.2373 78.5638Z" fill="#FCAA2D"/>
<path d="M37.654 73.5629C37.654 75.6284 36.0652 77.2172 34.3174 78.25C29.8687 80.7921 22.7189 80.7921 18.2702 78.25C16.9196 77.4555 16.0458 76.5817 15.4897 75.6284C15.2514 75.1517 15.0925 74.6751 15.013 74.1984C14.9336 73.8012 14.9336 70.6235 14.9336 70.703C14.9336 72.3713 16.0458 74.0395 18.1907 75.3106C22.6395 77.8528 29.7892 77.8528 34.238 75.3106C36.4624 74.0395 37.5746 70.6235 37.5746 70.6235C37.5746 70.6235 37.654 73.6423 37.654 73.5629Z" fill="#FFCC00"/>
<path d="M18.2645 66.017C13.8158 68.5591 13.8158 72.7695 18.1851 75.3117C22.6338 77.8538 29.7836 77.8538 34.2324 75.3117C38.6811 72.7695 38.6811 68.5591 34.3118 66.017C29.9425 63.3954 22.7133 63.3954 18.2645 66.017Z" fill="#FFE042"/>
<path d="M35.75 71.1011C35.5117 72.3721 34.6378 73.5638 32.9695 74.5171C29.2357 76.662 23.1982 76.662 19.5438 74.5171C17.955 73.5638 17.0017 72.3721 16.8428 71.1805C16.6045 69.5917 17.4783 67.9234 19.6233 66.7317C23.357 64.5868 29.3946 64.5868 33.1284 66.7317C35.1145 67.9234 35.9883 69.5917 35.75 71.1011Z" fill="#FCAA2D"/>
<path d="M35.7509 71.0991C35.5126 72.3701 34.6388 73.5618 32.9705 74.5151C29.2367 76.66 23.1991 76.66 19.5448 74.5151C17.9559 73.5618 17.0026 72.3701 16.8438 71.1785C17.0821 69.9074 17.9559 68.7158 19.6242 67.7625C23.358 65.6176 29.3956 65.6176 33.1294 67.7625C34.6388 68.7158 35.5921 69.9074 35.7509 71.0991Z" fill="#FCAA2D"/>
<path d="M32.3258 67.8457V68.6401L31.0547 69.3551V68.6401L32.3258 67.8457Z" fill="#FCAA2D"/>
<path d="M32.4092 69.9058V70.7002L30.582 71.3357V70.5413L32.4092 69.9058Z" fill="#FCAA2D"/>
<path d="M26.8594 70.0688V69.2744C26.8594 69.1949 26.8594 69.1949 26.8594 69.1155C26.8594 69.036 27.0183 68.9566 27.0977 68.8771C27.336 68.7183 27.5744 68.7183 27.8921 68.7183C28.2099 68.7183 28.5277 68.8771 28.9249 69.1155C29.3221 69.3538 29.6398 69.5921 29.9576 69.8305C30.1959 70.0688 30.4343 70.3071 30.5931 70.5454V71.3398C30.4343 71.1015 30.1959 70.8632 29.9576 70.6249C29.7193 70.3865 29.3221 70.1482 28.9249 69.9099C28.5277 69.6716 28.2099 69.5921 27.8921 69.5127C27.5744 69.5127 27.336 69.5127 27.0977 69.6716C26.9388 69.751 26.8594 69.8304 26.8594 69.9099C26.8594 69.9099 26.8594 69.9893 26.8594 70.0688Z" fill="#FCAA2D"/>
<mask id="mask6_817_11004" style="mask-type:luminance" maskUnits="userSpaceOnUse" x="26" y="68" width="5" height="4">
<path d="M26.8672 70.0702V69.2758C26.8672 69.1964 26.8672 69.1964 26.8672 69.1169C26.8672 69.0375 27.0261 68.9581 27.1055 68.8786C27.3438 68.7197 27.5822 68.7197 27.8999 68.7197C28.2177 68.7197 28.5355 68.8786 28.9327 69.1169C29.3299 69.3553 29.6477 69.5936 29.9654 69.8319C30.2038 70.0702 30.4421 70.3086 30.601 70.5469V71.3413C30.4421 71.103 30.2038 70.8647 29.9654 70.6263C29.7271 70.388 29.3299 70.1497 28.9327 69.9114C28.5355 69.673 28.2177 69.5936 27.8999 69.5141C27.5822 69.5141 27.3438 69.5141 27.1055 69.673C26.9466 69.7525 26.8672 69.8319 26.8672 69.9114C26.8672 69.9114 26.8672 69.9908 26.8672 70.0702Z" fill="white"/>
</mask>
<g mask="url(#mask6_817_11004)">
<path d="M30.6049 70.5479V71.3423C30.446 71.104 30.2077 70.8656 29.9693 70.6273C29.731 70.389 29.3338 70.1507 28.9366 69.9123C28.5394 69.674 28.2216 69.5946 27.9038 69.5151C27.5861 69.5151 27.3477 69.5151 27.1094 69.674C26.9505 69.7534 26.8711 69.8329 26.8711 69.9123C26.8711 69.9918 26.8711 69.9918 26.8711 70.0712V69.2768C26.8711 69.1974 26.8711 69.1974 26.8711 69.1179C26.8711 69.0385 27.03 68.959 27.1094 68.8796C27.3477 68.7207 27.5861 68.7207 27.9038 68.7207C28.2216 68.7207 28.5394 68.8796 28.9366 69.1179C29.3338 69.3562 29.6516 69.5946 29.9693 69.8329C30.2077 70.0712 30.446 70.3095 30.6049 70.5479Z" fill="#FCAA2D"/>
</g>
<path d="M25.7321 71.7372V72.5316C25.7321 72.4521 25.7321 72.3727 25.6526 72.2933C25.5732 72.1344 25.4937 71.9755 25.4143 71.8166C25.2554 71.6577 25.0965 71.4194 24.9376 71.2605C24.7787 71.0222 24.6199 70.8633 24.461 70.625C24.3021 70.3866 24.2227 70.2278 24.2227 69.9894C24.2227 69.91 24.2227 69.91 24.2227 69.8306V69.0361C24.2227 69.1156 24.2227 69.1156 24.2227 69.195C24.2227 69.4333 24.3815 69.6717 24.461 69.8306C24.6199 70.0689 24.7787 70.2278 24.9376 70.4661C25.0965 70.7044 25.2554 70.8633 25.4143 71.0222C25.5732 71.1811 25.6526 71.3399 25.6526 71.4988C25.7321 71.5783 25.7321 71.6577 25.7321 71.7372Z" fill="#FCAA2D"/>
<mask id="mask7_817_11004" style="mask-type:luminance" maskUnits="userSpaceOnUse" x="24" y="69" width="2" height="4">
<path d="M25.7281 71.7357V72.5301C25.7281 72.4507 25.7281 72.3712 25.6487 72.2918C25.5693 72.1329 25.4898 71.974 25.4104 71.8151C25.2515 71.6563 25.0926 71.4179 24.9337 71.259C24.7748 71.0207 24.616 70.8618 24.4571 70.6235C24.2982 70.3852 24.2188 70.2263 24.2188 69.988C24.2188 69.9085 24.2188 69.9085 24.2188 69.8291V69.0347C24.2188 69.1141 24.2188 69.1141 24.2188 69.1935C24.2188 69.4319 24.3776 69.6702 24.4571 69.8291C24.616 70.0674 24.7748 70.2263 24.9337 70.4646C25.0926 70.7029 25.2515 70.8618 25.4104 71.0207C25.5693 71.1796 25.6487 71.3385 25.6487 71.4974C25.7281 71.5768 25.7281 71.6563 25.7281 71.7357Z" fill="white"/>
</mask>
<g mask="url(#mask7_817_11004)">
<path d="M25.7242 71.7352V72.5296C25.7242 72.4502 25.7242 72.3707 25.6448 72.2913C25.5654 72.1324 25.4859 71.9735 25.4065 71.8146C25.2476 71.6558 25.0887 71.4174 24.9298 71.2586C24.7709 71.0202 24.6121 70.8613 24.4532 70.623C24.2943 70.3847 24.2148 70.2258 24.2148 69.9875C24.2148 69.908 24.2148 69.908 24.2148 69.8286V69.0342C24.2148 69.1136 24.2148 69.1136 24.2148 69.1931C24.2148 69.4314 24.3737 69.6697 24.4532 69.8286C24.6121 70.0669 24.7709 70.2258 24.9298 70.4641C25.0887 70.7025 25.2476 70.8613 25.4065 71.0202C25.5654 71.1791 25.6448 71.338 25.6448 71.4969C25.7242 71.5763 25.7242 71.6558 25.7242 71.7352Z" fill="#FCAA2D"/>
</g>
<path d="M21.3597 72.45V73.2444C20.8036 72.8472 20.4064 72.5295 20.1681 72.2117C19.9297 71.8939 19.7708 71.6556 19.6914 71.5762V70.7817C19.7708 70.9406 19.9297 71.179 20.1681 71.4173C20.4858 71.735 20.883 72.0528 21.3597 72.45Z" fill="#FCAA2D"/>
<mask id="mask8_817_11004" style="mask-type:luminance" maskUnits="userSpaceOnUse" x="19" y="70" width="3" height="4">
<path d="M21.3558 72.449V73.2435C20.7997 72.8463 20.4025 72.5285 20.1642 72.2107C19.9258 71.893 19.7669 71.6546 19.6875 71.5752V70.7808C19.7669 70.9396 19.9258 71.178 20.1642 71.4163C20.4819 71.7341 20.8791 72.0518 21.3558 72.449Z" fill="white"/>
</mask>
<g mask="url(#mask8_817_11004)">
<path d="M21.3558 72.4486V73.243C20.7997 72.8458 20.4025 72.528 20.1642 72.2102C19.9258 71.8925 19.7669 71.6541 19.6875 71.5747V70.7803C19.7669 70.9392 19.9258 71.1775 20.1642 71.4158C20.4819 71.7336 20.8791 72.0513 21.3558 72.4486Z" fill="#FCAA2D"/>
</g>
<path d="M28.2757 71.9722V72.7666C28.2757 73.0049 28.1963 73.1638 28.1169 73.4021C27.958 73.6405 27.7196 73.8788 27.4019 74.0377C27.1636 74.1965 26.8458 74.276 26.528 74.4349C26.2102 74.5143 25.8925 74.5938 25.4953 74.5938C25.0981 74.5938 24.7008 74.5938 24.3036 74.5143C23.9064 74.4349 23.4298 74.276 22.9531 74.1171V73.3227C23.4298 73.4816 23.827 73.6405 24.3036 73.7199C24.7008 73.7993 25.0981 73.7993 25.4953 73.7993C25.8925 73.7993 26.2102 73.7199 26.528 73.6404C26.8458 73.561 27.0841 73.4021 27.4019 73.2432C27.7991 73.0049 28.0374 72.846 28.1169 72.6077C28.2757 72.3694 28.2757 72.2105 28.2757 71.9722Z" fill="#FCAA2D"/>
<mask id="mask9_817_11004" style="mask-type:luminance" maskUnits="userSpaceOnUse" x="22" y="71" width="7" height="4">
<path d="M28.2679 71.9717V72.7661C28.2679 73.0044 28.1885 73.1633 28.109 73.4016C27.9502 73.64 27.7118 73.8783 27.3941 74.0372C27.1557 74.1961 26.838 74.2755 26.5202 74.4344C26.2024 74.5138 25.8847 74.5933 25.4875 74.5933C25.0902 74.5933 24.693 74.5933 24.2958 74.5138C23.8986 74.4344 23.422 74.2755 22.9453 74.1166V73.3222C23.422 73.4811 23.8192 73.64 24.2958 73.7194C24.693 73.7988 25.0902 73.7988 25.4875 73.7988C25.8847 73.7988 26.2024 73.7194 26.5202 73.64C26.838 73.5605 27.0763 73.4016 27.3941 73.2428C27.7913 73.0044 28.0296 72.8455 28.109 72.6072C28.2679 72.3689 28.2679 72.21 28.2679 71.9717Z" fill="white"/>
</mask>
<g mask="url(#mask9_817_11004)">
<path d="M28.264 71.9717V72.7661C28.264 73.0044 28.1846 73.1633 28.1051 73.4016C27.9463 73.64 27.7079 73.8783 27.3902 74.0372C27.1518 74.1961 26.8341 74.2755 26.5163 74.4344C26.1985 74.5138 25.8808 74.5933 25.4835 74.5933C25.0863 74.5933 24.6891 74.5933 24.2919 74.5138C23.8947 74.4344 23.4181 74.2755 22.9414 74.1166V73.3222C23.4181 73.4811 23.8153 73.64 24.2919 73.7194C24.6891 73.7988 25.0863 73.7988 25.4835 73.7988C25.8808 73.7988 26.1985 73.7194 26.5163 73.64C26.8341 73.5605 27.0724 73.4016 27.3902 73.2428C27.7874 73.0044 28.0257 72.8455 28.1051 72.6072C28.264 72.3689 28.264 72.21 28.264 71.9717Z" fill="#FCAA2D"/>
</g>
<path d="M22.9534 73.3262V74.0411L21.5234 74.915V74.2L22.9534 73.3262Z" fill="#FCAA2D"/>
<path d="M32.3227 67.8436L31.0516 68.5586C31.4488 68.7969 31.7666 69.1147 32.0049 69.2735C32.2432 69.5119 32.4021 69.6708 32.4816 69.8296L30.6544 70.4652C30.4955 70.2268 30.2572 69.9885 30.0189 69.7502C29.7805 69.5119 29.3833 69.2735 28.9861 69.0352C28.5889 68.7969 28.2711 68.7174 27.9534 68.638C27.6356 68.638 27.3973 68.638 27.159 68.7969C27.0001 68.8763 26.9206 68.9558 26.9206 69.0352C26.8412 69.1147 26.8412 69.1941 26.9206 69.353C27.0001 69.4324 27.0001 69.5913 27.159 69.7502C27.2384 69.9091 27.3973 70.068 27.5562 70.2268C27.7945 70.5446 27.9534 70.7829 28.1123 71.0213C28.2711 71.2596 28.3506 71.5774 28.3506 71.8157C28.3506 72.054 28.3506 72.2923 28.1917 72.5307C28.0328 72.769 27.7945 73.0073 27.4767 73.1662C27.2384 73.3251 26.9206 73.4045 26.6029 73.5634C26.2851 73.6429 25.9673 73.7223 25.5701 73.7223C25.1729 73.7223 24.7757 73.7223 24.3785 73.6428C23.9813 73.5634 23.5046 73.4045 23.028 73.2456L21.5186 74.1195L19.9297 73.2456L21.3597 72.3718C20.8036 71.9746 20.4064 71.6568 20.1681 71.339C19.9297 71.0213 19.7708 70.7829 19.6914 70.7035L21.598 70.2268C21.7569 70.4652 21.9952 70.7829 22.2336 71.0213C22.5513 71.339 22.8691 71.5774 23.3457 71.8157C23.8224 72.1335 24.2196 72.2923 24.5374 72.2923C24.8551 72.2923 25.1729 72.2923 25.4112 72.1335C25.5701 72.054 25.6496 71.9746 25.729 71.8157C25.729 71.7362 25.729 71.5774 25.729 71.4185C25.6496 71.2596 25.5701 71.1007 25.4907 70.9418C25.3318 70.7829 25.1729 70.5446 25.014 70.3857C24.8551 70.1474 24.6963 69.9885 24.5374 69.7502C24.3785 69.5119 24.299 69.353 24.299 69.1147C24.299 68.8763 24.299 68.638 24.4579 68.4791C24.6168 68.2408 24.7757 68.0819 25.1729 67.8436C25.4112 67.6847 25.729 67.5258 26.0468 67.4464C26.3645 67.3669 26.6823 67.2875 27.0795 67.2875C27.4767 67.2875 27.7945 67.2875 28.2711 67.3669C28.6684 67.4464 29.0656 67.5258 29.5422 67.7641L30.8927 66.9697L32.3227 67.8436Z" fill="#FFE042"/>
<path d="M21.5342 74.1955V74.9105L19.9453 74.0366V73.2422L21.5342 74.1955Z" fill="#FCAA2D"/>
<path d="M40.0407 69.9096C40.0407 71.9751 38.4519 73.5639 36.7042 74.5966C32.2554 77.1388 25.1056 77.1388 20.6569 74.5966C19.3064 73.8022 18.4325 72.9284 17.8764 71.9751C17.6381 71.4984 17.4792 71.0218 17.3998 70.5451C17.3203 70.1479 17.3203 66.9702 17.3203 67.0497C17.3203 68.7179 18.4325 70.3862 20.5774 71.6573C25.0262 74.1994 32.176 74.1994 36.6247 71.6573C38.8491 70.3862 39.9613 66.9702 39.9613 66.9702C39.9613 66.9702 40.0407 69.989 40.0407 69.9096Z" fill="#FFCC00"/>
<path d="M40.0368 66.9721C40.0368 67.9254 39.6396 68.8787 38.9246 69.7526C38.3685 70.3881 37.6536 71.0236 36.7003 71.5797C32.2515 74.1219 25.1017 74.1219 20.653 71.5797C19.6997 71.0236 18.9847 70.3881 18.4286 69.7526C17.7136 68.8787 17.3164 67.9254 17.3164 66.9721C17.3164 66.0982 17.5547 65.3038 18.1108 64.5094C18.6669 63.715 19.5408 62.9206 20.653 62.285C25.1017 59.7429 32.2515 59.7429 36.7003 62.285C37.8124 62.9206 38.6863 63.715 39.163 64.5094C39.7985 65.3038 40.0368 66.1777 40.0368 66.9721Z" fill="#FFE042"/>
<path d="M38.2044 67.4453C37.9661 68.7164 37.0922 69.908 35.424 70.8613C31.6902 73.0062 25.6526 73.0062 21.9188 70.8613C20.33 69.908 19.3767 68.7164 19.2178 67.5247C18.9795 65.9359 19.8533 64.2676 21.9983 63.076C25.732 60.9311 31.7696 60.9311 35.5034 63.076C37.5689 64.2676 38.4428 65.9359 38.2044 67.4453Z" fill="#FCAA2D"/>
<path d="M38.2171 67.4497C37.9788 68.7207 37.1049 69.9124 35.4366 70.8657C31.7029 73.0106 25.6653 73.0106 21.9315 70.8657C20.3427 69.9124 19.3894 68.7207 19.2305 67.5291C19.4688 66.258 20.3427 65.0664 22.0109 64.1131C25.7447 61.9682 31.7823 61.9682 35.5161 64.1131C37.1049 65.0664 37.9788 66.258 38.2171 67.4497Z" fill="#FFCC00"/>
<path d="M24.3935 65.3017V66.0167L23.043 65.2223V64.5073L24.3935 65.3017Z" fill="#FCAA2D"/>
<path d="M25.8945 66.9718V66.2568V66.1774C25.974 66.0185 26.2123 65.7802 26.6095 65.5418C27.0067 65.3035 27.4834 65.1446 27.8806 64.9857C28.3572 64.8269 28.7544 64.7474 29.1517 64.668V65.3829C28.7544 65.4624 28.3572 65.5418 27.8806 65.7007C27.4039 65.8596 27.0067 66.0185 26.6095 66.2568C26.1329 66.4951 25.8945 66.7335 25.8945 66.8923C25.8945 66.9718 25.8945 66.9718 25.8945 66.9718Z" fill="#FCAA2D"/>
<mask id="mask10_817_11004" style="mask-type:luminance" maskUnits="userSpaceOnUse" x="25" y="64" width="5" height="3">
<path d="M25.8867 66.9728V66.2578V66.1783C25.9662 66.0195 26.2045 65.7811 26.6017 65.5428C26.9989 65.3045 27.4756 65.1456 27.8728 64.9867C28.3494 64.8278 28.7466 64.7484 29.1438 64.6689V65.3839C28.7466 65.4634 28.3494 65.5428 27.8728 65.7017C27.3961 65.8606 26.9989 66.0195 26.6017 66.2578C26.125 66.4961 25.8867 66.7344 25.8867 66.8933C25.8867 66.9728 25.8867 66.9728 25.8867 66.9728Z" fill="white"/>
</mask>
<g mask="url(#mask10_817_11004)">
<path d="M29.222 64.6694V65.3844C28.8248 65.4639 28.4275 65.5433 27.9509 65.7022C27.4742 65.8611 27.077 66.0199 26.6798 66.2583C26.2032 66.4966 25.9648 66.7349 25.9648 66.8938V66.9733V66.2583V66.1788C26.0443 66.0199 26.2826 65.7816 26.6798 65.5433C27.077 65.305 27.5537 65.1461 27.9509 64.9872C28.4275 64.8283 28.8248 64.7489 29.222 64.6694Z" fill="#FCAA2D"/>
</g>
<path d="M31.6239 67.9233V68.6382C31.6239 68.4794 31.5444 68.3999 31.3856 68.3205C31.2267 68.241 31.1472 68.241 30.9884 68.1616C30.8295 68.1616 30.6706 68.1616 30.5117 68.1616C30.3528 68.1616 30.1145 68.241 29.9556 68.241C29.7173 68.3205 29.479 68.3205 29.1612 68.4794C28.6845 68.6382 28.2873 68.7177 27.8901 68.7971C27.4929 68.8766 27.0957 68.956 26.6985 68.956C26.3013 68.956 25.9041 68.956 25.5863 68.8766C25.1891 68.7971 24.8713 68.6382 24.5535 68.4794C24.3152 68.3205 24.1563 68.1616 23.9975 68.0027C23.8386 67.8438 23.7591 67.6849 23.6797 67.4466C23.6797 67.3672 23.6797 67.3672 23.6797 67.2877V66.5728C23.6797 66.6522 23.6797 66.6522 23.6797 66.7316C23.6797 66.97 23.8386 67.1288 23.9975 67.2877C24.1563 67.4466 24.3152 67.6055 24.5535 67.7644C24.8713 67.9233 25.2685 68.0822 25.5863 68.1616C25.9835 68.241 26.3013 68.241 26.6985 68.241C27.0957 68.241 27.4929 68.1616 27.8901 68.0821C28.2873 68.0027 28.764 67.9233 29.1612 67.7644C29.479 67.6849 29.7173 67.6055 29.9556 67.5261C30.1939 67.4466 30.3528 67.4466 30.5117 67.4466C30.6706 67.4466 30.8295 67.4466 30.9884 67.4466C31.1472 67.4466 31.2267 67.5261 31.3856 67.6055C31.5444 67.6849 31.6239 67.7644 31.6239 67.9233Z" fill="#FCAA2D"/>
<mask id="mask11_817_11004" style="mask-type:luminance" maskUnits="userSpaceOnUse" x="23" y="66" width="9" height="3">
<path d="M31.62 67.9247V68.6397C31.62 68.4808 31.5405 68.4014 31.3817 68.3219C31.2228 68.2425 31.1433 68.2425 30.9844 68.1631C30.8256 68.1631 30.6667 68.1631 30.5078 68.1631C30.3489 68.1631 30.1106 68.2425 29.9517 68.2425C29.7134 68.3219 29.475 68.3219 29.1573 68.4808C28.6806 68.6397 28.2834 68.7191 27.8862 68.7986C27.489 68.878 27.0918 68.9575 26.6946 68.9575C26.2974 68.9575 25.9002 68.9575 25.5824 68.878C25.1852 68.7986 24.8674 68.6397 24.5496 68.4808C24.3113 68.3219 24.1524 68.1631 23.9936 68.0042C23.8347 67.8453 23.7552 67.6864 23.6758 67.4481C23.6758 67.3686 23.6758 67.3686 23.6758 67.2892V66.5742C23.6758 66.6537 23.6758 66.6537 23.6758 66.7331C23.6758 66.9714 23.8347 67.1303 23.9936 67.2892C24.1524 67.4481 24.3113 67.607 24.5496 67.7658C24.8674 67.9247 25.2646 68.0836 25.5824 68.1631C25.9796 68.2425 26.2974 68.2425 26.6946 68.2425C27.0918 68.2425 27.489 68.1631 27.8862 68.0836C28.2834 68.0042 28.7601 67.9247 29.1573 67.7658C29.475 67.6864 29.7134 67.607 29.9517 67.5275C30.19 67.4481 30.3489 67.4481 30.5078 67.4481C30.6667 67.4481 30.8256 67.4481 30.9844 67.4481C31.1433 67.4481 31.2228 67.5275 31.3817 67.607C31.5405 67.6864 31.62 67.7658 31.62 67.9247Z" fill="white"/>
</mask>
<g mask="url(#mask11_817_11004)">
<path d="M31.62 67.9257V68.6407C31.62 68.4818 31.5405 68.4024 31.3817 68.3229C31.2228 68.2435 31.1433 68.2435 30.9844 68.164C30.8256 68.164 30.6667 68.164 30.5078 68.164C30.3489 68.164 30.1106 68.2435 29.9517 68.2435C29.7134 68.3229 29.475 68.3229 29.1573 68.4818C28.6806 68.6407 28.2834 68.7201 27.8862 68.7996C27.489 68.879 27.0918 68.9585 26.6946 68.9585C26.2974 68.9585 25.9002 68.9585 25.5824 68.879C25.1852 68.7996 24.8674 68.6407 24.5496 68.4818C24.3113 68.3229 24.1524 68.164 23.9936 68.0051C23.8347 67.8463 23.7552 67.6874 23.6758 67.4491C23.6758 67.3696 23.6758 67.3696 23.6758 67.2902V66.5752C23.6758 66.6546 23.6758 66.6546 23.6758 66.7341C23.6758 66.9724 23.8347 67.1313 23.9936 67.2902C24.1524 67.4491 24.3113 67.6079 24.5496 67.7668C24.8674 67.9257 25.2646 68.0846 25.5824 68.164C25.9796 68.2435 26.2974 68.2435 26.6946 68.2435C27.0918 68.2435 27.489 68.164 27.8862 68.0846C28.2834 68.0051 28.7601 67.9257 29.1573 67.7668C29.475 67.6874 29.7134 67.6079 29.9517 67.5285C30.19 67.4491 30.3489 67.4491 30.5078 67.4491C30.6667 67.4491 30.8256 67.4491 30.9844 67.4491C31.1433 67.4491 31.2228 67.5285 31.3817 67.6079C31.5405 67.6874 31.62 67.7668 31.62 67.9257Z" fill="#FCAA2D"/>
</g>
<path d="M33.8426 67.6851V68.4C33.8426 68.5589 33.7631 68.7178 33.7631 68.8767C33.6837 69.115 33.4454 69.2739 33.207 69.5122V68.7972C33.4454 68.5589 33.6837 68.3206 33.7631 68.1617C33.8426 67.9234 33.8426 67.8439 33.8426 67.6851Z" fill="#FCAA2D"/>
<mask id="mask12_817_11004" style="mask-type:luminance" maskUnits="userSpaceOnUse" x="33" y="67" width="1" height="3">
<path d="M33.8465 67.6855V68.4005C33.8465 68.5594 33.767 68.7183 33.767 68.8772C33.6876 69.1155 33.4493 69.2744 33.2109 69.5127V68.7977C33.4493 68.5594 33.6876 68.3211 33.767 68.1622C33.8465 67.9239 33.8465 67.8444 33.8465 67.6855Z" fill="white"/>
</mask>
<g mask="url(#mask12_817_11004)">
<path d="M33.8504 67.686V68.401C33.8504 68.5599 33.7709 68.7188 33.7709 68.8777C33.6915 69.116 33.4532 69.2749 33.2148 69.5132V68.7982C33.4532 68.5599 33.6915 68.3216 33.7709 68.1627C33.8504 67.9244 33.8504 67.8449 33.8504 67.686Z" fill="#FCAA2D"/>
</g>
<path d="M32.9716 70.3082V71.0232L31.8594 70.3082V69.5933L32.9716 70.3082Z" fill="#FCAA2D"/>
<path d="M34.4065 69.5117V70.1473L32.9766 71.0211V70.3061L34.4065 69.5117Z" fill="#FCAA2D"/>
<path d="M31.8624 69.5923V70.3073C31.4652 70.5456 31.0679 70.7045 30.6707 70.7839C30.353 70.9428 30.0352 71.0222 29.7969 71.0222V70.3073C30.0352 70.2278 30.353 70.1484 30.6707 70.0689C30.9885 69.9895 31.3857 69.8306 31.8624 69.5923Z" fill="#FCAA2D"/>
<mask id="mask13_817_11004" style="mask-type:luminance" maskUnits="userSpaceOnUse" x="29" y="69" width="3" height="3">
<path d="M31.8702 69.5938V70.3087C31.473 70.5471 31.0758 70.7059 30.6785 70.7854C30.3608 70.9443 30.043 71.0237 29.8047 71.0237V70.3087C30.043 70.2293 30.3608 70.1498 30.6785 70.0704C30.9963 69.991 31.3935 69.8321 31.8702 69.5938Z" fill="white"/>
</mask>
<g mask="url(#mask13_817_11004)">
<path d="M31.8741 69.5947V70.3097C31.4769 70.548 31.0797 70.7069 30.6825 70.7864C30.3647 70.9452 30.0469 71.0247 29.8086 71.0247V70.3097C30.0469 70.2303 30.3647 70.1508 30.6825 70.0714C31.0002 69.9919 31.3974 69.8331 31.8741 69.5947Z" fill="#FCAA2D"/>
</g>
<path d="M28.4476 63.6338L29.242 64.6665C28.8448 64.746 28.4476 64.8254 27.971 64.9843C27.4943 65.1432 27.0971 65.3021 26.6999 65.5404C26.2232 65.7787 25.9849 66.0171 25.9849 66.1759C25.9055 66.3348 26.0644 66.4937 26.2232 66.6526C26.3821 66.732 26.541 66.8115 26.6999 66.8115C26.8588 66.8115 27.0177 66.8115 27.256 66.8115C27.4943 66.8115 27.7326 66.732 27.971 66.6526C28.2093 66.5731 28.5271 66.4937 28.9243 66.4143C29.242 66.3348 29.6392 66.2554 29.957 66.1759C30.2748 66.0965 30.672 66.017 30.9898 66.017C31.3075 66.017 31.7047 66.017 32.0225 66.0965C32.3403 66.1759 32.7375 66.2554 33.0552 66.4937C33.2936 66.6526 33.5319 66.8115 33.6908 66.9704C33.8497 67.1292 33.9291 67.3676 34.0086 67.5264C34.0086 67.6853 34.0086 67.9237 33.9291 68.162C33.8497 68.4003 33.6113 68.5592 33.373 68.7975L34.5646 69.5125L33.1347 70.3069L31.9431 69.5919C31.5459 69.8303 31.1486 69.9891 30.7514 70.0686C30.4337 70.2275 30.1159 70.3069 29.8776 70.3069L28.8448 69.3536C29.1626 69.2742 29.5598 69.1947 29.957 69.0358C30.3542 68.877 30.7514 68.7181 31.0692 68.4797C31.4664 68.2414 31.6253 68.0825 31.6253 67.9237C31.6253 67.7648 31.5459 67.6059 31.387 67.5264C31.2281 67.447 31.1486 67.447 30.9898 67.3676C30.8309 67.3676 30.672 67.3676 30.5131 67.3676C30.3542 67.3676 30.1159 67.447 29.957 67.447C29.7187 67.5264 29.4804 67.5264 29.1626 67.6853C28.6859 67.8442 28.2887 67.9237 27.8915 68.0031C27.4943 68.0825 27.0971 68.162 26.6999 68.162C26.3027 68.162 25.9055 68.162 25.5877 68.0825C25.1905 68.0031 24.8727 67.8442 24.555 67.6853C24.3166 67.5264 24.1577 67.3676 23.9989 67.2087C23.84 67.0498 23.7605 66.8909 23.6811 66.6526C23.6811 66.4143 23.6811 66.2554 23.84 66.017C23.9194 65.7787 24.1577 65.5404 24.4755 65.3021L23.125 64.5076L24.555 63.7132L25.9055 64.5076C26.4616 64.1899 27.0177 64.031 27.4943 63.8721C27.8121 63.7132 28.2093 63.6338 28.4476 63.6338Z" fill="#FFE042"/>
<path d="M29.7906 70.3858V71.1007L28.7578 70.068V69.353L29.7906 70.3858Z" fill="#FCAA2D"/>
</svg>
